# xmcd CD database file generated by OrangeCD 6.4
#
# Track frame offsets:
#	150
#	13149
#	28743
#	43359
#	54868
#	69058
#	74434
#	90979
#	103945
#	120776
#	138718
#	143948
#	160584
#
# Disc length: 2348 seconds
#
# Revision: 1
# Processed by: cddbd v1.5.2PL0 Copyright (c) Steve Scherf et al.
# Submitted via: OrangeCD 6.4
#
DISCID=ad092a0d
DTITLE=Justin Robinson and the Mary Annettes - Bones for Tinder
DYEAR=2012
DGENRE=Folk
TTITLE0=Neptune
TTITLE1=Bright Diamonds
TTITLE2=Bonfire (Bones For Tinder)
TTITLE3=Devil's Teeth
TTITLE4=Butcher Bird
TTITLE5=Thank You Mr. Wright
TTITLE6=Nemesis Or Me!
TTITLE7=Ships And Verses
TTITLE8=Vultures
TTITLE9=Kissin' And Cussin'
TTITLE10=Brook Street
TTITLE11=The Phil Spectors
TTITLE12=Gypsy Death And You
EXTD=
EXTT0=
EXTT1=
EXTT2=
EXTT3=
EXTT4=
EXTT5=
EXTT6=
EXTT7=
EXTT8=
EXTT9=
EXTT10=
EXTT11=
EXTT12=
PLAYORDER=
